<svg width="40px" height="40px" viewBox="0 0 40 40" version="1.1" xmlns="http://www.w3.org/2000/svg" xmlns:xlink="http://www.w3.org/1999/xlink">
  <title>icon/boom</title>
  <defs>
    <filter id="filter-1">
      <feColorMatrix in="SourceGraphic" type="matrix" values="0 0 0 0 1.000000 0 0 0 0 1.000000 0 0 0 0 1.000000 0 0 0 1.000000 0"></feColorMatrix>
    </filter>
  </defs>
  <g id="icon/boom" stroke="none" stroke-width="1" fill="none" fill-rule="evenodd">
    <g id="icon-rest" fill="#323232" stroke="#FFFFFF" stroke-width="2">
      <circle id="Oval-2-Copy-17" cx="20" cy="20" r="19"></circle>
    </g>
    <g filter="url(#filter-1)" id="Icon/32/Public-parks">
      <g transform="translate(12.000000, 7.000000)">
        <path d="M9,25.0943985 L9,15.9 L9.2,15.9 C9.92177984,16.6905435 10.9303145,17.1587918 12,17.2 L12.1,17.2 C12.5863205,17.2447726 13.0747266,17.1401141 13.5,16.9 C15.0425227,16.2765252 16.0380492,14.7633248 16,13.1 L16,12.5 C15.7761899,11.3185394 15.0450108,10.2948886 14,9.7 C14.304847,9.18789664 14.4445153,8.59430628 14.4,8 C14.4184545,6.30133739 13.1803084,4.84971782 11.5,4.6 L11.5,3.9 C11.5187791,2.58636948 10.7790652,1.37946787 9.6,0.8 C8.57113888,0.398373742 7.42886112,0.398373742 6.4,0.8 C5.22093478,1.37946787 4.48122089,2.58636948 4.5,3.9 L4.5,4.6 C2.81969163,4.84971782 1.58154552,6.30133739 1.6,8 C1.57567275,8.56080596 1.71462609,9.11661933 2,9.6 C0.954989232,10.1948886 0.223810073,11.2185394 1.11668487e-14,12.4 L1.11668487e-14,13 C-0.0380492488,14.6633248 0.957477281,16.1765252 2.5,16.8 C2.9252734,17.0401141 3.41367946,17.1447726 3.9,17.1 L4,17.1 C5.04091089,17.1116436 6.04535751,16.7170396 6.8,16 L7,16 L7,25.0943985 L9,25.0943985 Z" id="Path" fill="#000000"></path>
      </g>
    </g>
  </g>
</svg>
