<svg xmlns="http://www.w3.org/2000/svg" width="40" height="40">
  <circle cx="20" cy="20" r="19" fill="#323232" stroke="#FFF" stroke-width="2"/>
  <path fill="#FFF" d="M21 32.094V22.9h.2a4 4 0 0 0 2.8 1.3h.1a2.4 2.4 0 0 0 1.4-.3 4 4 0 0 0 2.5-3.8v-.6a4.1 4.1 0 0 0-2-2.8 2.9 2.9 0 0 0 .4-1.7 3.4 3.4 0 0 0-2.9-3.4v-.7a3.4 3.4 0 0 0-1.9-3.1 4.4 4.4 0 0 0-3.2 0 3.4 3.4 0 0 0-1.9 3.1v.7a3.4 3.4 0 0 0-2.9 3.4 2.9 2.9 0 0 0 .4 1.6 4.1 4.1 0 0 0-2 2.8v.6a4 4 0 0 0 2.5 3.8 2.4 2.4 0 0 0 1.4.3h.1a4 4 0 0 0 2.8-1.1h.2v9.094h2Z"/>
</svg>
