<svg width="44px" height="44px" viewBox="0 0 44 44" version="1.1" xmlns="http://www.w3.org/2000/svg" xmlns:xlink="http://www.w3.org/1999/xlink">
  <title>Group 6</title>
  <g id="Aanvullende-vragen" stroke="none" stroke-width="1" fill="none" fill-rule="evenodd">
    <g id="eiken-kaart2" transform="translate(-651.000000, -328.000000)">
      <g id="Group-6" transform="translate(651.000000, 329.000000)">
        <g id="icon-select" transform="translate(0.000000, 3.000000)">
          <circle id="Oval-2-Copy-21" stroke="#EC0000" stroke-width="4" fill="#FFFFFF" cx="20" cy="20" r="18"></circle>
          <circle id="Oval-Copy" fill="#EC0000" cx="20" cy="20" r="6"></circle>
        </g>
        <g id="Group-2" transform="translate(23.000000, 0.000000)">
          <circle id="Oval" stroke="#FFFFFF" stroke-width="2" fill="#EC0000" cx="10" cy="10" r="10"></circle>
          <path d="M11.169,11.682 L11.169,5.088 L8.817,5.088 L8.817,11.682 L11.169,11.682 Z M9.993,15.14 C10.1796667,15.14 10.357,15.105 10.525,15.035 C10.693,14.965 10.84,14.8716667 10.966,14.755 C11.092,14.6383333 11.19,14.4983333 11.26,14.335 C11.33,14.1716667 11.365,13.9966667 11.365,13.81 C11.365,13.6326667 11.33,13.4623333 11.26,13.299 C11.19,13.1356667 11.092,12.9956667 10.966,12.879 C10.84,12.7623333 10.693,12.669 10.525,12.599 C10.357,12.529 10.1796667,12.494 9.993,12.494 C9.80633333,12.494 9.629,12.529 9.461,12.599 C9.293,12.669 9.14833333,12.7646667 9.027,12.886 C8.90566667,13.0073333 8.81,13.1496667 8.74,13.313 C8.67,13.4763333 8.635,13.6466667 8.635,13.824 C8.635,14.0106667 8.67233333,14.1833333 8.747,14.342 C8.82166667,14.5006667 8.91966667,14.6406667 9.041,14.762 C9.16233333,14.8833333 9.30466667,14.9766667 9.468,15.042 C9.63133333,15.1073333 9.80633333,15.14 9.993,15.14 Z" id="!" fill="#FFFFFF" fill-rule="nonzero"></path>
        </g>
      </g>
    </g>
  </g>
</svg>
