<svg width="40px" height="40px" viewBox="0 0 40 40" version="1.1" xmlns="http://www.w3.org/2000/svg" xmlns:xlink="http://www.w3.org/1999/xlink">
  <title>icon-glas</title>
  <g id="Symbols" stroke="none" stroke-width="1" fill="none" fill-rule="evenodd">
    <g id="icon-glas">
      <circle id="Oval-2-Copy-20" stroke="#FFFFFF" stroke-width="2" fill="#FEC813" cx="20" cy="20" r="19"></circle>
      <g transform="translate(15.000000, 9.000000)" fill="#000000" fill-rule="nonzero" id="Shape">
        <path d="M9.00000001,19.5 C9.00000001,21 7.49501038,21 7.49501038,21 L1.50000001,21 C1.20831299,21 6.91943569e-09,20.8062744 6.91943569e-09,19.5 L6.91943569e-09,18 L6.00000001,18 L6.00000001,10.5015 L6.91943569e-09,10.5027466 L6.91943569e-09,7.50274657 C6.91943569e-09,6 3.00000001,6 3.00000001,4.5 L3.00000001,-6.82121026e-13 L6.00000001,-6.82121026e-13 L6.00000001,4.5 C6.00000001,6 9.00000001,6 9.00000001,7.50274657 L9.00000001,19.5 Z M4.5,12 L4.5,16.5 L0,16.5 L0,12 L4.5,12 Z"></path>
      </g>
    </g>
  </g>
</svg>
