<svg width="40px" height="40px" viewBox="0 0 40 40" version="1.1" xmlns="http://www.w3.org/2000/svg" xmlns:xlink="http://www.w3.org/1999/xlink">
  <title>icon-paper</title>
  <g id="Symbols" stroke="none" stroke-width="1" fill="none" fill-rule="evenodd">
    <g id="icon-paper">
      <circle id="Oval-2-Copy-18" stroke="#FFFFFF" stroke-width="2" fill="#009DEC" cx="20" cy="20" r="19"></circle>
      <g transform="translate(13.000000, 10.000000)" fill="#FFFFFF" fill-rule="nonzero" id="Combined-Shape">
        <path d="M15,0 L15,21 L0,21 L0,0 L15,0 Z M13.5,18 L1.5,18 L1.5,19.5 L13.5,19.5 L13.5,18 Z M13.5,15 L1.5,15 L1.5,16.5 L13.5,16.5 L13.5,15 Z M13.5,12 L1.5,12 L1.5,13.5 L13.5,13.5 L13.5,12 Z M13.5,9 L1.5,9 L1.5,10.5 L13.5,10.5 L13.5,9 Z M13.5,6 L1.5,6 L1.5,7.5 L13.5,7.5 L13.5,6 Z M9,1.5 L1.5,1.5 L1.5,3 L9,3 L9,1.5 Z"></path>
      </g>
    </g>
  </g>
</svg>
