<svg width="40px" height="40px" viewBox="0 0 40 40" version="1.1" xmlns="http://www.w3.org/2000/svg" xmlns:xlink="http://www.w3.org/1999/xlink">
  <title>icon-plastic</title>
  <g id="Symbols" stroke="none" stroke-width="1" fill="none" fill-rule="evenodd">
    <g id="icon-plastic">
      <circle id="Oval-2-Copy-19" stroke="#FFFFFF" stroke-width="2" fill="#FF9100" cx="20" cy="20" r="19"></circle>
      <g transform="translate(16.000000, 9.000000)" fill="#000000" fill-rule="nonzero" id="Combined-Shape">
        <path d="M9,16.5 L9,19.5646362 L7.5,21 L1.52050782,21 L0,19.5646362 L0,16.5 L9,16.5 Z M9,13.5 L9,15 L0,15 L0,13.5 L9,13.5 Z M9,10.5 L9,12 L0,12 L0,10.5 L9,10.5 Z M6,3 L9,6.00274657 L9,9.00274657 L0,9.00274657 L0,6.00274657 L3,3 L6,3 Z M6,0 L6,1.5 L3,1.5 L3,0 L6,0 Z"></path>
      </g>
    </g>
  </g>
</svg>
