<svg width="40px" height="40px" viewBox="0 0 40 40" version="1.1" xmlns="http://www.w3.org/2000/svg" xmlns:xlink="http://www.w3.org/1999/xlink">
  <title>icon-textile</title>
  <g id="Symbols" stroke="none" stroke-width="1" fill="none" fill-rule="evenodd">
    <g id="icon-textile">
      <circle id="Oval-2-Copy-21" stroke="#FFFFFF" stroke-width="2" fill="#00A03C" cx="20" cy="20" r="19"></circle>
      <g transform="translate(10.000000, 13.000000)" fill="#FFFFFF" fill-rule="nonzero" id="Shape">
        <path d="M20.7426406,4.24264068 L16.5,8.48528138 L16.5,15 L4.5,15 L4.5,8.48528138 L0.257359312,4.24264068 L4.5,0 L9,0 C9,0.828427125 9.67157287,1.5 10.5,1.5 C11.3284271,1.5 12,0.828427125 12,0 L16.5,0 L20.7426406,4.24264068 Z M15,1.5 L13.0977178,1.50161625 C12.578774,2.39742692 11.6097562,3 10.5,3 C9.39024375,3 8.42122599,2.39742692 7.90228221,1.50161625 L6,1.5 L6,13.5 L15,13.5 L15,1.5 Z M4.49935932,2.121 L2.37867966,4.24264068 L4.49935932,6.363 L4.49935932,2.121 Z M16.4993593,2.121 L16.4993593,6.363 L18.6213204,4.24264068 L16.4993593,2.121 Z"></path>
      </g>
    </g>
  </g>
</svg>
