<?xml version="1.0" encoding="UTF-8"?>
<svg width="32px" height="42px" viewBox="0 0 32 42" version="1.1" xmlns="http://www.w3.org/2000/svg" xmlns:xlink="http://www.w3.org/1999/xlink">
    <g stroke="none" stroke-width="1" fill="none" fill-rule="evenodd">
        <g id="pointer-copy-18">
            <g transform="translate(2.000000, 3.000000)" fill="#FFFFFF">
                <ellipse id="Oval" cx="13.5" cy="13.7428571" rx="13.5" ry="13.7428571"></ellipse>
                <polygon id="Triangle" transform="translate(14.019231, 29.071429) rotate(-180.000000) translate(-14.019231, -29.071429) " points="14.0192308 21.1428571 24.9230769 37 3.11538462 37"></polygon>
            </g>
            <path d="M16,0 C24.836556,0 32,7.11471699 32,15.8911652 C32,22.0856476 26.6666667,30.7885925 16,42 C5.33333333,30.9437469 -1.2818191e-11,22.240802 -1.2818191e-11,15.8911652 C-1.2818191e-11,7.11471699 7.163444,0 16,0 Z M16,4.89372599 C9.88777667,4.90113375 4.93470045,9.82051827 4.92724196,15.8911652 C4.92724196,22.9628681 15.857868,35.2446569 15.9864636,35.371959 L16.0362812,35.3212087 C16.9206927,34.4028233 27.072758,23.3210992 27.072758,15.8911652 C27.0652996,9.82051827 22.1122233,4.90113375 16,4.89372599 Z M16,11 C18.7614237,11 21,13.2385763 21,16 C21,18.7614237 18.7614237,21 16,21 C13.2385763,21 11,18.7614237 11,16 C11,13.2385763 13.2385763,11 16,11 Z" id="Combined-Shape" fill="#EC0000"></path>
        </g>
    </g>
</svg>