<?xml version="1.0" encoding="UTF-8"?>
<svg width="20px" height="20px" viewBox="0 0 20 20" version="1.1" xmlns="http://www.w3.org/2000/svg" xmlns:xlink="http://www.w3.org/1999/xlink">
  <title>icon/reported</title>
  <g id="SPECS" stroke="none" stroke-width="1" fill="none" fill-rule="evenodd">
    <g id="meldingsformulier-iconen" transform="translate(-315.000000, -180.000000)">
      <g id="Group-2" transform="translate(315.000000, 180.000000)">
        <circle id="Oval" stroke="#FFFFFF" stroke-width="2" fill="#EC0000" cx="10" cy="10" r="9"></circle>
        <g id="!" transform="translate(8.635000, 5.088000)" fill="#FFFFFF" fill-rule="nonzero">
          <path d="M0.182,6.594 L0.182,0 L2.534,0 L2.534,6.594 L0.182,6.594 Z M2.73,8.722 C2.73,8.90866667 2.695,9.08366667 2.625,9.247 C2.555,9.41033333 2.457,9.55033333 2.331,9.667 C2.205,9.78366667 2.058,9.877 1.89,9.947 C1.722,10.017 1.54466667,10.052 1.358,10.052 C1.17133333,10.052 0.996333333,10.0193333 0.833,9.954 C0.669666667,9.88866667 0.527333333,9.79533333 0.406,9.674 C0.284666667,9.55266667 0.186666667,9.41266667 0.112,9.254 C0.0373333333,9.09533333 0,8.92266667 0,8.736 C0,8.55866667 0.035,8.38833333 0.105,8.225 C0.175,8.06166667 0.270666667,7.91933333 0.392,7.798 C0.513333333,7.67666667 0.658,7.581 0.826,7.511 C0.994,7.441 1.17133333,7.406 1.358,7.406 C1.54466667,7.406 1.722,7.441 1.89,7.511 C2.058,7.581 2.205,7.67433333 2.331,7.791 C2.457,7.90766667 2.555,8.04766667 2.625,8.211 C2.695,8.37433333 2.73,8.54466667 2.73,8.722 Z" id="Shape"></path>
        </g>
      </g>
    </g>
  </g>
</svg>
