<svg xmlns="http://www.w3.org/2000/svg" id="mainsvg" width="552.8767578125" height="473.00000000000006" viewBox="-10 -10 502.615234375 430"><defs><marker id="arrow" viewBox="0 0 10 10" refX="10" refY="5" markerWidth="5" markerHeight="5" orient="auto-start-reverse" fill="black"><path d="M 0 0 L 10 5 L 0 10 z"/></marker><filter id="shadowOLD" x="-50%" y="-50%" width="250%" height="250%"><feDropShadow flood-color="black" flood-opacity="0.3" dx="1" dy="1" stdDeviation="2"> </feDropShadow></filter><filter id="shadow-path" filterUnits="userSpaceOnUse" x="-10" y="-10" width="502.615234375px" height="430px"><feDropShadow flood-color="black" flood-opacity="0.1" dx="1" dy="1" stdDeviation="1"> </feDropShadow></filter><filter id="shadow" filterUnits="userSpaceOnUse" x="-10" y="-10" width="602.615234375px" height="530px"><feDropShadow flood-color="black" flood-opacity="0.1" dx="1" dy="1" stdDeviation="1"> </feDropShadow></filter></defs><rect x="-10" y="-10" width="502.615234375" height="430" fill="#fff"/><g transform="translate(0, 0)"><rect width="482.615234375" height="410" stroke="black" fill="#ffffff" stroke-width="2" transform="translate(0, 0)" rx="2"/><g transform="translate(4, 4)"><rect width="82.7041015625" height="24" stroke="black" fill="none" stroke-width="0" transform="translate(0, 0)" rx="0"/><text fill="black" font-size="14" font-weight="normal" transform="translate(4, 4)" alignment-baseline="middle" font-family="Arial"><tspan x="0" dy="14" font-family="Arial" font-size="14" font-weight="normal">Architecture</tspan></text></g><g transform="translate(8, 40)"><rect width="466.615234375" height="82" stroke="black" fill="#e6e6e6" stroke-width="2" transform="translate(0, 0)" rx="2"/><g transform="translate(4, 4)"><rect width="107.62109375" height="24" stroke="black" fill="none" stroke-width="0" transform="translate(0, 0)" rx="0"/><text fill="black" font-size="14" font-weight="normal" transform="translate(4, 4)" alignment-baseline="middle" font-family="Arial"><tspan x="0" dy="14" font-family="Arial" font-size="14" font-weight="normal">signals-frontend</tspan></text></g><g transform="translate(8, 40)"><rect width="450.615234375" height="34" stroke="black" fill="white" stroke-width="2" transform="translate(0, 0)" rx="3"/><text fill="black" font-size="16" font-weight="normal" transform="translate(195.0615234375, 8)" alignment-baseline="middle" font-family="Arial"><tspan x="0" dy="16" font-family="Arial" font-size="16" font-weight="normal">dev conf</tspan></text></g></g><g transform="translate(8, 130)"><rect width="466.615234375" height="140" stroke="black" fill="#e6e6e6" stroke-width="2" transform="translate(0, 0)" rx="2"/><g transform="translate(8, 8)"><rect width="142.26953125" height="124" stroke="black" fill="#cccccc" stroke-width="2" transform="translate(0, 0)" rx="2"/><g transform="translate(4, 4)"><rect width="126.26953125" height="24" stroke="black" fill="none" stroke-width="0" transform="translate(0, 0)" rx="0"/><text fill="black" font-size="14" font-weight="normal" transform="translate(4, 4)" alignment-baseline="middle" font-family="Arial"><tspan x="0" dy="14" font-family="Arial" font-size="14" font-weight="normal">signals-amsterdam</tspan></text></g><g transform="translate(8, 40)"><rect width="126.26953125" height="34" stroke="black" fill="white" stroke-width="2" transform="translate(0, 0)" rx="3"/><text fill="black" font-size="16" font-weight="normal" transform="translate(33.337890625, 8)" alignment-baseline="middle" font-family="Arial"><tspan x="0" dy="16" font-family="Arial" font-size="16" font-weight="normal">acc conf</tspan></text></g><g transform="translate(8, 82)"><rect width="126.26953125" height="34" stroke="black" fill="white" stroke-width="2" transform="translate(0, 0)" rx="3"/><text fill="black" font-size="16" font-weight="normal" transform="translate(29.775390625, 8)" alignment-baseline="middle" font-family="Arial"><tspan x="0" dy="16" font-family="Arial" font-size="16" font-weight="normal">prod conf</tspan></text></g></g><g transform="translate(158.26953125, 8)"><rect width="112.7177734375" height="124" stroke="black" fill="#cccccc" stroke-width="2" transform="translate(0, 0)" rx="2"/><g transform="translate(4, 4)"><rect width="96.7177734375" height="24" stroke="black" fill="none" stroke-width="0" transform="translate(0, 0)" rx="0"/><text fill="black" font-size="14" font-weight="normal" transform="translate(4, 4)" alignment-baseline="middle" font-family="Arial"><tspan x="0" dy="14" font-family="Arial" font-size="14" font-weight="normal">signals-weesp</tspan></text></g><g transform="translate(8, 40)"><rect width="96.7177734375" height="34" stroke="black" fill="white" stroke-width="2" transform="translate(0, 0)" rx="3"/><text fill="black" font-size="16" font-weight="normal" transform="translate(18.56201171875, 8)" alignment-baseline="middle" font-family="Arial"><tspan x="0" dy="16" font-family="Arial" font-size="16" font-weight="normal">acc conf</tspan></text></g><g transform="translate(8, 82)"><rect width="96.7177734375" height="34" stroke="black" fill="white" stroke-width="2" transform="translate(0, 0)" rx="3"/><text fill="black" font-size="16" font-weight="normal" transform="translate(14.99951171875, 8)" alignment-baseline="middle" font-family="Arial"><tspan x="0" dy="16" font-family="Arial" font-size="16" font-weight="normal">prod conf</tspan></text></g></g><g transform="translate(278.9873046875, 8)"><rect width="179.6279296875" height="124" stroke="black" fill="#cccccc" stroke-width="2" transform="translate(0, 0)" rx="2"/><g transform="translate(4, 4)"><rect width="163.6279296875" height="24" stroke="black" fill="none" stroke-width="0" transform="translate(0, 0)" rx="0"/><text fill="black" font-size="14" font-weight="normal" transform="translate(4, 4)" alignment-baseline="middle" font-family="Arial"><tspan x="0" dy="14" font-family="Arial" font-size="14" font-weight="normal">signals-amsterdamsebos</tspan></text></g><g transform="translate(8, 40)"><rect width="163.6279296875" height="34" stroke="black" fill="white" stroke-width="2" transform="translate(0, 0)" rx="3"/><text fill="black" font-size="16" font-weight="normal" transform="translate(52.01708984375, 8)" alignment-baseline="middle" font-family="Arial"><tspan x="0" dy="16" font-family="Arial" font-size="16" font-weight="normal">acc conf</tspan></text></g><g transform="translate(8, 82)"><rect width="163.6279296875" height="34" stroke="black" fill="white" stroke-width="2" transform="translate(0, 0)" rx="3"/><text fill="black" font-size="16" font-weight="normal" transform="translate(48.45458984375, 8)" alignment-baseline="middle" font-family="Arial"><tspan x="0" dy="16" font-family="Arial" font-size="16" font-weight="normal">prod conf</tspan></text></g></g></g><g transform="translate(8, 278)"><rect width="466.615234375" height="124" stroke="black" fill="#e6e6e6" stroke-width="2" transform="translate(0, 0)" rx="2"/><g transform="translate(4, 4)"><rect width="30.5732421875" height="24" stroke="black" fill="none" stroke-width="0" transform="translate(0, 0)" rx="0"/><text fill="black" font-size="14" font-weight="normal" transform="translate(4, 4)" alignment-baseline="middle" font-family="Arial"><tspan x="0" dy="14" font-family="Arial" font-size="14" font-weight="normal">API</tspan></text></g><g transform="translate(8, 40)"><rect width="450.615234375" height="34" stroke="black" fill="white" stroke-width="2" transform="translate(0, 0)" rx="3"/><text fill="black" font-size="16" font-weight="normal" transform="translate(91.4599609375, 8)" alignment-baseline="middle" font-family="Arial"><tspan x="0" dy="16" font-family="Arial" font-size="16" font-weight="normal">acc.api.data.amsterdam.nl/signals/v1/</tspan></text></g><g transform="translate(8, 82)"><rect width="450.615234375" height="34" stroke="black" fill="white" stroke-width="2" transform="translate(0, 0)" rx="3"/><text fill="black" font-size="16" font-weight="normal" transform="translate(106.1318359375, 8)" alignment-baseline="middle" font-family="Arial"><tspan x="0" dy="16" font-family="Arial" font-size="16" font-weight="normal">api.data.amsterdam.nl/signals/v1/</tspan></text></g></g></g></svg>