<svg xmlns="http://www.w3.org/2000/svg" id="mainsvg" width="831.24013671875" height="396.4125" viewBox="-10 -10 755.6728515625 360.375"><defs><marker id="arrow" viewBox="0 0 10 10" refX="10" refY="5" markerWidth="5" markerHeight="5" orient="auto-start-reverse" fill="black"><path d="M 0 0 L 10 5 L 0 10 z"/></marker><filter id="shadowOLD" x="-50%" y="-50%" width="250%" height="250%"><feDropShadow flood-color="black" flood-opacity="0.3" dx="1" dy="1" stdDeviation="2"> </feDropShadow></filter><filter id="shadow-path" filterUnits="userSpaceOnUse" x="-10" y="-10" width="755.6728515625px" height="360.375px"><feDropShadow flood-color="black" flood-opacity="0.1" dx="1" dy="1" stdDeviation="1"> </feDropShadow></filter><filter id="shadow" filterUnits="userSpaceOnUse" x="-10" y="-10" width="855.6728515625px" height="460.375px"><feDropShadow flood-color="black" flood-opacity="0.1" dx="1" dy="1" stdDeviation="1"> </feDropShadow></filter></defs><rect x="-10" y="-10" width="755.6728515625" height="360.375" fill="#fff"/><g transform="translate(0, 0)"><rect width="129.84375" height="33.375" stroke="black" fill="white" stroke-width="2" transform="translate(0, 0)" rx="3"/><text fill="black" font-size="16" font-weight="normal" transform="translate(8, 8)" alignment-baseline="middle" font-family="Arial"><tspan x="0" dy="16" font-family="Arial" font-size="16" font-weight="normal">signals-frontend</tspan></text></g><g transform="translate(153.84375, 0)"><rect width="70.25" height="33.375" stroke="black" fill="white" stroke-width="2" transform="translate(0, 0)" rx="3"/><text fill="black" font-size="16" font-weight="normal" transform="translate(8, 8)" alignment-baseline="middle" font-family="Arial"><tspan x="0" dy="16" font-family="Arial" font-size="16" font-weight="normal">Jenkins</tspan></text></g><g transform="translate(377.3525390625, 0)"><rect width="66.6796875" height="33.375" stroke="black" fill="white" stroke-width="2" transform="translate(0, 0)" rx="3"/><text fill="black" font-size="16" font-weight="normal" transform="translate(8, 8)" alignment-baseline="middle" font-family="Arial"><tspan x="0" dy="16" font-family="Arial" font-size="16" font-weight="normal">Docker</tspan></text></g><g transform="translate(468.0322265625, 0)"><rect width="151.15625" height="33.375" stroke="black" fill="white" stroke-width="2" transform="translate(0, 0)" rx="3"/><text fill="black" font-size="16" font-weight="normal" transform="translate(8, 8)" alignment-baseline="middle" font-family="Arial"><tspan x="0" dy="16" font-family="Arial" font-size="16" font-weight="normal">signals-amsterdam</tspan></text></g><g transform="translate(643.1884765625, 0)"><rect width="92.484375" height="33.375" stroke="black" fill="white" stroke-width="2" transform="translate(0, 0)" rx="3"/><text fill="black" font-size="16" font-weight="normal" transform="translate(8, 8)" alignment-baseline="middle" font-family="Arial"><tspan x="0" dy="16" font-family="Arial" font-size="16" font-weight="normal">Openstack</tspan></text></g><path d="M 64.921875,45.375 L 78.921875 45.375 L 78.921875 68.75 L 64.921875 68.75" fill="none" stroke="black" stroke-dasharray="4,4" stroke-width="2" marker-end="url(#arrow)"/><path d="M 64.921875,108.125 L 188.96875 108.125" fill="none" stroke="black" stroke-dasharray="none" stroke-width="2" marker-end="url(#arrow)"/><path d="M 188.96875,143.5 L 410.6923828125 143.5" fill="none" stroke="black" stroke-dasharray="none" stroke-width="2" marker-end="url(#arrow)"/><path d="M 188.96875,151.5 L 202.96875 151.5 L 202.96875 174.875 L 188.96875 174.875" fill="none" stroke="black" stroke-dasharray="4,4" stroke-width="2" marker-end="url(#arrow)"/><path d="M 410.6923828125,214.25 L 188.96875 214.25" fill="none" stroke="black" stroke-dasharray="none" stroke-width="2" marker-end="url(#arrow)"/><path d="M 543.6103515625,249.625 L 188.96875 249.625" fill="none" stroke="black" stroke-dasharray="none" stroke-width="2" marker-end="url(#arrow)"/><path d="M 188.96875,285 L 410.6923828125 285" fill="none" stroke="black" stroke-dasharray="none" stroke-width="2" marker-end="url(#arrow)"/><path d="M 188.96875,320.375 L 689.4306640625 320.375" fill="none" stroke="black" stroke-dasharray="none" stroke-width="2" marker-end="url(#arrow)"/><path d="M 64.921875,33.375 L 64.921875 340.375" fill="none" stroke="black" stroke-dasharray="none" stroke-width="2"/><path d="M 188.96875,33.375 L 188.96875 340.375" fill="none" stroke="black" stroke-dasharray="none" stroke-width="2"/><path d="M 410.6923828125,33.375 L 410.6923828125 340.375" fill="none" stroke="black" stroke-dasharray="none" stroke-width="2"/><path d="M 543.6103515625,33.375 L 543.6103515625 340.375" fill="none" stroke="black" stroke-dasharray="none" stroke-width="2"/><path d="M 689.4306640625,33.375 L 689.4306640625 340.375" fill="none" stroke="black" stroke-dasharray="none" stroke-width="2"/><g transform="translate(84.921875, 45.375)"><rect width="100.61328125" height="23.375" stroke="none" fill="white" stroke-width="0" transform="translate(0, 0)" rx="2"/><text fill="black" font-size="14" font-weight="normal" transform="translate(4, 4)" alignment-baseline="middle" font-family="Arial"><tspan x="0" dy="14" font-family="Arial" font-size="14" font-weight="normal">merge develop</tspan></text></g><g transform="translate(108.15576171875, 80.75)"><rect width="37.5791015625" height="23.375" stroke="none" fill="white" stroke-width="0" transform="translate(0, 0)" rx="2"/><text fill="black" font-size="14" font-weight="normal" transform="translate(4, 4)" alignment-baseline="middle" font-family="Arial"><tspan x="0" dy="14" font-family="Arial" font-size="14" font-weight="normal">build</tspan></text></g><g transform="translate(218.7861328125, 116.125)"><rect width="162.0888671875" height="23.375" stroke="none" fill="white" stroke-width="0" transform="translate(0, 0)" rx="2"/><text fill="black" font-size="14" font-weight="normal" transform="translate(4, 4)" alignment-baseline="middle" font-family="Arial"><tspan x="0" dy="14" font-family="Arial" font-size="14" font-weight="normal">ois/signalsfrontend:latest</tspan></text></g><g transform="translate(208.96875, 151.5)"><rect width="205.654296875" height="23.375" stroke="none" fill="white" stroke-width="0" transform="translate(0, 0)" rx="2"/><text fill="black" font-size="14" font-weight="normal" transform="translate(4, 4)" alignment-baseline="middle" font-family="Arial"><tspan x="0" dy="14" font-family="Arial" font-size="14" font-weight="normal">job: signals-amsterdam/develop</tspan></text></g><g transform="translate(218.7861328125, 186.875)"><rect width="162.0888671875" height="23.375" stroke="none" fill="white" stroke-width="0" transform="translate(0, 0)" rx="2"/><text fill="black" font-size="14" font-weight="normal" transform="translate(4, 4)" alignment-baseline="middle" font-family="Arial"><tspan x="0" dy="14" font-family="Arial" font-size="14" font-weight="normal">ois/signalsfrontend:latest</tspan></text></g><g transform="translate(347.5, 222.25)"><rect width="37.5791015625" height="23.375" stroke="none" fill="white" stroke-width="0" transform="translate(0, 0)" rx="2"/><text fill="black" font-size="14" font-weight="normal" transform="translate(4, 4)" alignment-baseline="middle" font-family="Arial"><tspan x="0" dy="14" font-family="Arial" font-size="14" font-weight="normal">build</tspan></text></g><g transform="translate(212.96875, 257.625)"><rect width="173.7236328125" height="23.375" stroke="none" fill="white" stroke-width="0" transform="translate(0, 0)" rx="2"/><text fill="black" font-size="14" font-weight="normal" transform="translate(4, 4)" alignment-baseline="middle" font-family="Arial"><tspan x="0" dy="14" font-family="Arial" font-size="14" font-weight="normal">ois/signals-amsterdam:acc</tspan></text></g><g transform="translate(323.1416015625, 293)"><rect width="232.1162109375" height="23.375" stroke="none" fill="white" stroke-width="0" transform="translate(0, 0)" rx="2"/><text fill="black" font-size="14" font-weight="bold" transform="translate(4, 4)" alignment-baseline="middle" font-family="Arial"><tspan x="0" dy="14" font-family="Arial" font-size="14" font-weight="bold">deploy acc.meldingen.amsterdam.nl</tspan></text></g></svg>