<svg xmlns="http://www.w3.org/2000/svg" id="mainsvg" width="662.01201171875" height="240.76250000000002" viewBox="-10 -10 601.8291015625 218.875"><defs><marker id="arrow" viewBox="0 0 10 10" refX="10" refY="5" markerWidth="5" markerHeight="5" orient="auto-start-reverse" fill="black"><path d="M 0 0 L 10 5 L 0 10 z"/></marker><filter id="shadowOLD" x="-50%" y="-50%" width="250%" height="250%"><feDropShadow flood-color="black" flood-opacity="0.3" dx="1" dy="1" stdDeviation="2"> </feDropShadow></filter><filter id="shadow-path" filterUnits="userSpaceOnUse" x="-10" y="-10" width="601.8291015625px" height="218.875px"><feDropShadow flood-color="black" flood-opacity="0.1" dx="1" dy="1" stdDeviation="1"> </feDropShadow></filter><filter id="shadow" filterUnits="userSpaceOnUse" x="-10" y="-10" width="701.8291015625px" height="318.875px"><feDropShadow flood-color="black" flood-opacity="0.1" dx="1" dy="1" stdDeviation="1"> </feDropShadow></filter></defs><rect x="-10" y="-10" width="601.8291015625" height="218.875" fill="#fff"/><g transform="translate(0, 0)"><rect width="151.15625" height="33.375" stroke="black" fill="white" stroke-width="2" transform="translate(0, 0)" rx="3"/><text fill="black" font-size="16" font-weight="normal" transform="translate(8, 8)" alignment-baseline="middle" font-family="Arial"><tspan x="0" dy="16" font-family="Arial" font-size="16" font-weight="normal">signals-amsterdam</tspan></text></g><g transform="translate(175.15625, 0)"><rect width="70.25" height="33.375" stroke="black" fill="white" stroke-width="2" transform="translate(0, 0)" rx="3"/><text fill="black" font-size="16" font-weight="normal" transform="translate(8, 8)" alignment-baseline="middle" font-family="Arial"><tspan x="0" dy="16" font-family="Arial" font-size="16" font-weight="normal">Jenkins</tspan></text></g><g transform="translate(398.6650390625, 0)"><rect width="66.6796875" height="33.375" stroke="black" fill="white" stroke-width="2" transform="translate(0, 0)" rx="3"/><text fill="black" font-size="16" font-weight="normal" transform="translate(8, 8)" alignment-baseline="middle" font-family="Arial"><tspan x="0" dy="16" font-family="Arial" font-size="16" font-weight="normal">Docker</tspan></text></g><g transform="translate(489.3447265625, 0)"><rect width="92.484375" height="33.375" stroke="black" fill="white" stroke-width="2" transform="translate(0, 0)" rx="3"/><text fill="black" font-size="16" font-weight="normal" transform="translate(8, 8)" alignment-baseline="middle" font-family="Arial"><tspan x="0" dy="16" font-family="Arial" font-size="16" font-weight="normal">Openstack</tspan></text></g><path d="M 75.578125,45.375 L 89.578125 45.375 L 89.578125 68.75 L 75.578125 68.75" fill="none" stroke="black" stroke-dasharray="4,4" stroke-width="2" marker-end="url(#arrow)"/><path d="M 75.578125,108.125 L 210.28125 108.125" fill="none" stroke="black" stroke-dasharray="none" stroke-width="2" marker-end="url(#arrow)"/><path d="M 210.28125,143.5 L 432.0048828125 143.5" fill="none" stroke="black" stroke-dasharray="none" stroke-width="2" marker-end="url(#arrow)"/><path d="M 210.28125,178.875 L 535.5869140625 178.875" fill="none" stroke="black" stroke-dasharray="none" stroke-width="2" marker-end="url(#arrow)"/><path d="M 75.578125,33.375 L 75.578125 198.875" fill="none" stroke="black" stroke-dasharray="none" stroke-width="2"/><path d="M 210.28125,33.375 L 210.28125 198.875" fill="none" stroke="black" stroke-dasharray="none" stroke-width="2"/><path d="M 432.0048828125,33.375 L 432.0048828125 198.875" fill="none" stroke="black" stroke-dasharray="none" stroke-width="2"/><path d="M 535.5869140625,33.375 L 535.5869140625 198.875" fill="none" stroke="black" stroke-dasharray="none" stroke-width="2"/><g transform="translate(95.578125, 45.375)"><rect width="100.61328125" height="23.375" stroke="none" fill="white" stroke-width="0" transform="translate(0, 0)" rx="2"/><text fill="black" font-size="14" font-weight="normal" transform="translate(4, 4)" alignment-baseline="middle" font-family="Arial"><tspan x="0" dy="14" font-family="Arial" font-size="14" font-weight="normal">merge develop</tspan></text></g><g transform="translate(124.14013671875, 80.75)"><rect width="37.5791015625" height="23.375" stroke="none" fill="white" stroke-width="0" transform="translate(0, 0)" rx="2"/><text fill="black" font-size="14" font-weight="normal" transform="translate(4, 4)" alignment-baseline="middle" font-family="Arial"><tspan x="0" dy="14" font-family="Arial" font-size="14" font-weight="normal">build</tspan></text></g><g transform="translate(234.28125, 116.125)"><rect width="173.7236328125" height="23.375" stroke="none" fill="white" stroke-width="0" transform="translate(0, 0)" rx="2"/><text fill="black" font-size="14" font-weight="normal" transform="translate(4, 4)" alignment-baseline="middle" font-family="Arial"><tspan x="0" dy="14" font-family="Arial" font-size="14" font-weight="normal">ois/signals-amsterdam:acc</tspan></text></g><g transform="translate(256.8759765625, 151.5)"><rect width="232.1162109375" height="23.375" stroke="none" fill="white" stroke-width="0" transform="translate(0, 0)" rx="2"/><text fill="black" font-size="14" font-weight="bold" transform="translate(4, 4)" alignment-baseline="middle" font-family="Arial"><tspan x="0" dy="14" font-family="Arial" font-size="14" font-weight="bold">deploy acc.meldingen.amsterdam.nl</tspan></text></g></svg>