<svg width="44px" height="44px" viewBox="0 0 44 44" version="1.1" xmlns="http://www.w3.org/2000/svg" xmlns:xlink="http://www.w3.org/1999/xlink">
    <title>Group 4</title>
    <defs>
        <filter id="filter-1">
            <feColorMatrix in="SourceGraphic" type="matrix" values="0 0 0 0 1.000000 0 0 0 0 1.000000 0 0 0 0 1.000000 0 0 0 1.000000 0"></feColorMatrix>
        </filter>
    </defs>
    <g id="Aanvullende-vragen" stroke="none" stroke-width="1" fill="none" fill-rule="evenodd">
        <g id="eiken-kaart2" transform="translate(-20.000000, -105.000000)">
            <g id="Group-4" transform="translate(20.000000, 106.000000)">
                <g id="Group" transform="translate(0.000000, 3.000000)">
                    <g id="icon-rest" fill="#323232" stroke="#FFFFFF" stroke-width="2">
                        <circle id="Oval-2-Copy-17" cx="20" cy="20" r="19"></circle>
                    </g>
                    <g filter="url(#filter-1)" id="Icon/32/Public-parks">
                        <g transform="translate(12.000000, 7.000000)">
                            <path d="M9,25.0943985 L9,15.9 L9.2,15.9 C9.92177984,16.6905435 10.9303145,17.1587918 12,17.2 L12.1,17.2 C12.5863205,17.2447726 13.0747266,17.1401141 13.5,16.9 C15.0425227,16.2765252 16.0380492,14.7633248 16,13.1 L16,12.5 C15.7761899,11.3185394 15.0450108,10.2948886 14,9.7 C14.304847,9.18789664 14.4445153,8.59430628 14.4,8 C14.4184545,6.30133739 13.1803084,4.84971782 11.5,4.6 L11.5,3.9 C11.5187791,2.58636948 10.7790652,1.37946787 9.6,0.8 C8.57113888,0.398373742 7.42886112,0.398373742 6.4,0.8 C5.22093478,1.37946787 4.48122089,2.58636948 4.5,3.9 L4.5,4.6 C2.81969163,4.84971782 1.58154552,6.30133739 1.6,8 C1.57567275,8.56080596 1.71462609,9.11661933 2,9.6 C0.954989232,10.1948886 0.223810073,11.2185394 1.11668487e-14,12.4 L1.11668487e-14,13 C-0.0380492488,14.6633248 0.957477281,16.1765252 2.5,16.8 C2.9252734,17.0401141 3.41367946,17.1447726 3.9,17.1 L4,17.1 C5.04091089,17.1116436 6.04535751,16.7170396 6.8,16 L7,16 L7,25.0943985 L9,25.0943985 Z" id="Path" fill="#000000"></path>
                        </g>
                    </g>
                </g>
                <g id="Group-2" transform="translate(23.000000, 0.000000)">
                    <circle id="Oval" stroke="#FFFFFF" stroke-width="2" fill="#EC0000" cx="10" cy="10" r="10"></circle>
                    <path d="M11.169,11.682 L11.169,5.088 L8.817,5.088 L8.817,11.682 L11.169,11.682 Z M9.993,15.14 C10.1796667,15.14 10.357,15.105 10.525,15.035 C10.693,14.965 10.84,14.8716667 10.966,14.755 C11.092,14.6383333 11.19,14.4983333 11.26,14.335 C11.33,14.1716667 11.365,13.9966667 11.365,13.81 C11.365,13.6326667 11.33,13.4623333 11.26,13.299 C11.19,13.1356667 11.092,12.9956667 10.966,12.879 C10.84,12.7623333 10.693,12.669 10.525,12.599 C10.357,12.529 10.1796667,12.494 9.993,12.494 C9.80633333,12.494 9.629,12.529 9.461,12.599 C9.293,12.669 9.14833333,12.7646667 9.027,12.886 C8.90566667,13.0073333 8.81,13.1496667 8.74,13.313 C8.67,13.4763333 8.635,13.6466667 8.635,13.824 C8.635,14.0106667 8.67233333,14.1833333 8.747,14.342 C8.82166667,14.5006667 8.91966667,14.6406667 9.041,14.762 C9.16233333,14.8833333 9.30466667,14.9766667 9.468,15.042 C9.63133333,15.1073333 9.80633333,15.14 9.993,15.14 Z" id="!" fill="#FFFFFF" fill-rule="nonzero"></path>
                </g>
            </g>
        </g>
    </g>
</svg>
