<svg width="40px" height="40px" viewBox="0 0 40 40" version="1.1" xmlns="http://www.w3.org/2000/svg" xmlns:xlink="http://www.w3.org/1999/xlink">
<title>icon-grachtmast</title>
<g id="icoon/Icon_40_Grachtmast" stroke="none" stroke-width="1" fill="none" fill-rule="evenodd">
  <circle id="Oval" stroke="#000000" stroke-width="2" fill="#FFFFFF" cx="20" cy="20" r="19"></circle>
  <rect id="Rectangle" fill="#000000" x="18" y="24" width="4" height="14"></rect>
  <rect id="Rectangle-Copy" fill="#000000" x="15" y="28" width="10" height="2"></rect>
  <circle id="Oval" fill="#000000" cx="14" cy="29" r="2"></circle>
  <circle id="Oval-Copy" fill="#000000" cx="26" cy="29" r="2"></circle>
  <circle id="Oval-Copy-2" fill="#000000" cx="20" cy="8" r="2"></circle>
  <polygon id="Rectangle-Copy-14" fill="#FEC813" points="13 11.5 27 11.5 23.5 22.5 16.5 22.5"></polygon>
  <polygon id="Rectangle-Copy-2" fill="#000000" transform="translate(20.000000, 10.000000) rotate(-180.000000) translate(-20.000000, -10.000000) " points="12 8 28 8.00366211 25.9828027 12 13.975732 12"></polygon>
  <path d="M12,12 L28,12 L24,24 L16,24 L12,12 Z M17.4770575,22 L22.5229425,22 L26,12 L14,12 L17.4770575,22 Z" id="Rectangle" fill="#000000" fill-rule="nonzero"></path>
</g>
</svg>
