<?xml version="1.0" encoding="UTF-8"?>
<svg width="32px" height="32px" viewBox="0 0 32 32" version="1.1" xmlns="http://www.w3.org/2000/svg" xmlns:xlink="http://www.w3.org/1999/xlink">
    <!-- Generator: Sketch 54.1 (76490) - https://sketchapp.com -->
    <title>icoon/Icon_32_Grachtmast</title>
    <desc>Created with Sketch.</desc>
    <g id="icoon/Icon_32_Grachtmast" stroke="none" stroke-width="1" fill="none" fill-rule="evenodd">
        <circle id="Oval" stroke="#000000" stroke-width="2" fill="#FFFFFF" cx="16" cy="16" r="13"></circle>
        <rect id="Rectangle" fill="#000000" x="14" y="19" width="4" height="10"></rect>
        <rect id="Rectangle-Copy" fill="#000000" x="12" y="23" width="8" height="1"></rect>
        <circle id="Oval" fill="#000000" cx="11.5" cy="23.5" r="1.5"></circle>
        <circle id="Oval-Copy" fill="#000000" cx="20.5" cy="23.5" r="1.5"></circle>
        <polygon id="Rectangle-Copy-14" fill="#FEC813" points="11.5 11.5 20.5 11.5 18.25 19.5 13.75 19.5"></polygon>
        <path d="M14.5853529,9 C14.5300771,8.84361054 14.5,8.67531771 14.5,8.5 C14.5,7.67157288 15.1715729,7 16,7 C16.8284271,7 17.5,7.67157288 17.5,8.5 C17.5,8.67531771 17.4699229,8.84361054 17.4146471,9 L20.3175315,9 L22,12 L10,11.9972534 L11.7177789,9 L14.5853529,9 Z M10,12 L22,12 L19.495487,20 L12.5368809,20 L10,12 Z M18.1985549,18.0249499 L20,12 L12,12 L13.8027328,18.0292566 L18.1985549,18.0249499 Z" id="Combined-Shape" fill="#000000" fill-rule="nonzero"></path>
    </g>
</svg>