<?xml version="1.0" encoding="UTF-8"?>
<svg width="32px" height="32px" viewBox="0 0 32 32" version="1.1" xmlns="http://www.w3.org/2000/svg" xmlns:xlink="http://www.w3.org/1999/xlink">
    <!-- Generator: Sketch 54.1 (76490) - https://sketchapp.com -->
    <title>icoon/Icon_32_Grachtmast_select</title>
    <desc>Created with Sketch.</desc>
    <g id="icoon/Icon_32_Grachtmast_select" stroke="none" stroke-width="1" fill="none" fill-rule="evenodd">
        <circle id="Oval" stroke="#EC0000" stroke-width="4" fill="#FFFFFF" cx="16" cy="16" r="14"></circle>
        <rect id="Rectangle" fill="#EC0000" x="14" y="20" width="4" height="9"></rect>
        <rect id="Rectangle-Copy" fill="#EC0000" x="12" y="23" width="8" height="1"></rect>
        <circle id="Oval" fill="#EC0000" cx="11.5" cy="23.5" r="1.5"></circle>
        <circle id="Oval-Copy" fill="#EC0000" cx="20.5" cy="23.5" r="1.5"></circle>
        <circle id="Oval-Copy-2" fill="#EC0000" cx="16" cy="8.5" r="1.5"></circle>
        <polygon id="Rectangle-Copy-14" fill="#FFFFFF" points="11 12 20 12 17.75 20 13.25 20"></polygon>
        <polygon id="Rectangle-Copy-2" fill="#EC0000" transform="translate(16.000000, 10.500000) rotate(-180.000000) translate(-16.000000, -10.500000) " points="10 9 22 9.00274658 20.2822211 12 11.6824685 12"></polygon>
        <path d="M10,12 L22,12 L19.495487,20 L12.5368809,20 L10,12 Z M18.1985549,18.0249499 L20,12 L12,12 L13.8027328,18.0292566 L18.1985549,18.0249499 Z" id="Rectangle" fill="#EC0000" fill-rule="nonzero"></path>
    </g>
</svg>