<?xml version="1.0" encoding="UTF-8"?>
<svg width="32px" height="32px" viewBox="0 0 32 32" version="1.1" xmlns="http://www.w3.org/2000/svg" xmlns:xlink="http://www.w3.org/1999/xlink">
    <!-- Generator: Sketch 53.2 (72643) - https://sketchapp.com -->
    <title>Icon/32/Trash-Bin  </title>
    <desc>Created with Sketch.</desc>
    <g id="Icon/32/Trash-Bin--" stroke="none" stroke-width="1" fill="none" fill-rule="evenodd">
        <path d="M28.2857143,4 L28.2857143,8 L26.2857143,8 L26.2857143,32 L4.28571429,32 L4.28571429,8 L2.28571429,8 L2.28571429,4 L10.2857143,4 L10.2857143,0 L20.2857143,0 L20.2857143,4 L28.2857143,4 Z M12.2857143,2 L12.2857143,4 L18.2857143,4 L18.2857143,2 L12.2857143,2 Z M22.2857143,28 L22.2857143,8 L8.28571429,8 L8.28571429,28 L22.2857143,28 Z M10.3057143,12 L12.2857143,12 L12.2857143,24 L10.3057143,24 L10.3057143,12 Z M14.2857143,12 L16.2857143,12 L16.2857143,24 L14.2857143,24 L14.2857143,12 Z M18.3057143,12 L20.2857143,12 L20.2857143,24 L18.3057143,24 L18.3057143,12 Z" id="Combined-Shape" fill="#ffffff"></path>
    </g>
</svg>